<?xml version="1.0" encoding="UTF-8"?>
<!DOCTYPE svg PUBLIC "-//W3C//DTD SVG 1.1//EN" "http://www.w3.org/Graphics/SVG/1.1/DTD/svg11.dtd">
<svg xmlns="http://www.w3.org/2000/svg" version="1.1" width="500px" height="500px" style="shape-rendering:geometricPrecision; text-rendering:geometricPrecision; image-rendering:optimizeQuality; fill-rule:evenodd; clip-rule:evenodd" xmlns:xlink="http://www.w3.org/1999/xlink">
<g><path style="opacity:1" fill="#07233f" d="M 134.5,79.5 C 212.167,79.3333 289.834,79.5 367.5,80C 384.579,82.4146 396.413,91.5813 403,107.5C 403.794,110.471 404.461,113.471 405,116.5C 405.667,201.167 405.667,285.833 405,370.5C 401.531,388.633 391.031,400.466 373.5,406C 291.167,406.667 208.833,406.667 126.5,406C 117.313,402.815 109.813,397.315 104,389.5C 100.578,384.655 98.245,379.322 97,373.5C 96.3333,286.5 96.3333,199.5 97,112.5C 100.075,99.5213 107.575,90.0213 119.5,84C 124.482,82.0104 129.482,80.5104 134.5,79.5 Z"/></g>
<g><path style="opacity:1" fill="#012b53" d="M 383.5,148.5 C 383.827,138.652 383.494,128.986 382.5,119.5C 380.354,109.855 374.354,104.022 364.5,102C 287.167,101.333 209.833,101.333 132.5,102C 123.008,106.985 118.341,114.819 118.5,125.5C 118.5,132.833 118.5,140.167 118.5,147.5C 118.5,147.833 118.5,148.167 118.5,148.5C 114.727,148.043 113.893,146.376 116,143.5C 116.141,133.784 116.807,124.117 118,114.5C 119.934,110.241 122.268,106.241 125,102.5C 126.32,102.201 127.82,102.034 129.5,102C 128.692,101.692 128.025,101.192 127.5,100.5C 141.018,99.076 154.518,98.076 168,97.5C 169.667,97.8333 171.333,98.1667 173,98.5C 175.038,96.9278 177.371,95.9278 180,95.5C 183.333,96.8333 186.667,96.8333 190,95.5C 193.295,98.017 196.629,98.017 200,95.5C 200.388,96.428 201.055,97.0946 202,97.5C 203.235,96.3845 204.402,96.3845 205.5,97.5C 206.192,96.9747 206.692,96.3081 207,95.5C 210.035,97.7954 213.368,98.1287 217,96.5C 222.313,97.3126 227.646,97.9792 233,98.5C 236.385,98.6404 239.385,97.6404 242,95.5C 246.262,96.4645 250.262,96.4645 254,95.5C 258.226,98.5425 262.726,98.5425 267.5,95.5C 271.942,96.2414 276.442,96.2414 281,95.5C 283.167,95.6667 285.333,95.8333 287.5,96C 288,96.5 288.5,97 289,97.5C 292.798,97.544 296.465,97.2107 300,96.5C 300.75,97.1258 301.584,97.6258 302.5,98C 308.083,97.9002 312.916,98.0669 317,98.5C 317.333,97.8333 317.667,97.1667 318,96.5C 328.099,98.2159 338.432,99.2159 349,99.5C 354.704,97.241 360.538,96.5744 366.5,97.5C 367.429,98.6888 367.762,100.022 367.5,101.5C 370.745,101.88 373.745,103.047 376.5,105C 378.724,107.965 381.058,110.798 383.5,113.5C 384.824,125.327 384.824,136.993 383.5,148.5 Z"/></g>
<g><path style="opacity:1" fill="#198fe3" d="M 382.5,119.5 C 381.833,119.833 381.167,120.167 380.5,120.5C 378.316,116.119 375.65,112.119 372.5,108.5C 371.781,106.112 370.115,104.612 367.5,104C 364.833,103.667 362.167,103.333 359.5,103C 284.834,102.5 210.167,102.333 135.5,102.5C 135.5,103.5 135.5,104.5 135.5,105.5C 133.168,107.096 130.501,108.262 127.5,109C 131.19,109.424 131.357,110.258 128,111.5C 127.667,111.167 127.333,110.833 127,110.5C 126.363,113.328 124.696,115.328 122,116.5C 120.57,119.353 119.737,122.353 119.5,125.5C 119.167,125.5 118.833,125.5 118.5,125.5C 118.341,114.819 123.008,106.985 132.5,102C 209.833,101.333 287.167,101.333 364.5,102C 374.354,104.022 380.354,109.855 382.5,119.5 Z"/></g>
<g><path style="opacity:1" fill="#0397f5" d="M 372.5,108.5 C 370.641,107.406 368.641,106.573 366.5,106C 289.501,104.196 212.501,104.029 135.5,105.5C 135.5,104.5 135.5,103.5 135.5,102.5C 210.167,102.333 284.834,102.5 359.5,103C 362.167,103.333 364.833,103.667 367.5,104C 370.115,104.612 371.781,106.112 372.5,108.5 Z"/></g>
<g><path style="opacity:1" fill="#03abfc" d="M 372.5,108.5 C 375.65,112.119 378.316,116.119 380.5,120.5C 380.649,121.552 380.483,122.552 380,123.5C 379.059,121.939 377.892,120.605 376.5,119.5C 376.167,120.5 375.833,121.5 375.5,122.5C 376.068,124.204 376.068,125.704 375.5,127C 377.409,127.448 378.576,126.615 379,124.5C 379.333,124.833 379.667,125.167 380,125.5C 380.499,131.491 380.666,137.491 380.5,143.5C 378.856,143.714 377.356,143.38 376,142.5C 375.626,143.416 375.126,144.25 374.5,145C 362.147,145.593 349.813,145.26 337.5,144C 338.216,140.889 340.049,140.722 343,143.5C 345.389,141.699 345.889,139.532 344.5,137C 344.639,135.699 345.305,134.866 346.5,134.5C 352.633,137.379 358.633,137.046 364.5,133.5C 367.385,125.767 366.218,118.767 361,112.5C 356.056,114.154 351.39,113.82 347,111.5C 344.72,115.142 343.386,119.142 343,123.5C 342.355,124.646 341.522,125.646 340.5,126.5C 341.325,127.386 342.325,127.719 343.5,127.5C 343.5,128.5 343.5,129.5 343.5,130.5C 342.244,130.461 341.244,130.961 340.5,132C 341.636,133.53 342.636,134.863 343.5,136C 342.5,137 341.5,138 340.5,139C 337.421,139.83 334.755,140.663 332.5,141.5C 335.257,145.676 334.257,146.509 329.5,144C 332.167,143 332.167,142 329.5,141C 330.973,140.29 331.64,139.124 331.5,137.5C 334.55,138.077 336.55,136.91 337.5,134C 335.404,129.339 333.571,124.506 332,119.5C 331.092,117.561 329.592,116.561 327.5,116.5C 327.423,115.25 326.756,114.417 325.5,114C 320.811,113.709 316.144,113.709 311.5,114C 312.821,112.455 312.488,111.289 310.5,110.5C 309.692,110.808 309.025,111.308 308.5,112C 309.376,113.586 310.376,115.086 311.5,116.5C 309.647,118.809 307.98,121.142 306.5,123.5C 308.151,117.158 307.484,116.491 304.5,121.5C 303.167,122.167 301.833,122.833 300.5,123.5C 298.919,118.992 299.919,115.158 303.5,112C 301.511,110.382 299.511,110.549 297.5,112.5C 300.109,113.76 299.943,114.76 297,115.5C 294.976,115.2 294.476,114.367 295.5,113C 293.965,112.504 292.465,112.67 291,113.5C 290.05,112.978 289.216,112.311 288.5,111.5C 286.018,112.897 283.352,113.731 280.5,114C 279.62,115.356 279.286,116.856 279.5,118.5C 278.167,118.5 276.833,118.5 275.5,118.5C 275.622,121.257 274.455,123.257 272,124.5C 271.667,123.5 271.333,122.5 271,121.5C 268.358,125.455 266.525,124.955 265.5,120C 265.833,119.667 266.167,119.333 266.5,119C 264.863,116.69 262.696,115.19 260,114.5C 259.37,111.906 258.203,109.573 256.5,107.5C 254.404,108.62 254.07,110.12 255.5,112C 254.551,112.617 253.718,112.451 253,111.5C 251.494,114.937 248.827,116.27 245,115.5C 241.796,115.008 238.629,114.342 235.5,113.5C 231.34,115.427 228.007,114.427 225.5,110.5C 226.833,109.5 228.167,108.5 229.5,107.5C 227.602,106.266 225.935,106.599 224.5,108.5C 223.808,107.975 223.308,107.308 223,106.5C 220.931,107.264 218.764,107.764 216.5,108C 217.667,108.5 218.5,109.333 219,110.5C 220.43,110.306 221.93,110.306 223.5,110.5C 221.445,111.187 219.779,112.354 218.5,114C 217.175,113.852 216.008,114.018 215,114.5C 212.049,110.6 209.382,110.933 207,115.5C 206.088,113.341 205.255,111.175 204.5,109C 205.624,108.751 206.624,108.251 207.5,107.5C 205.994,106.253 204.494,106.253 203,107.5C 202.803,109.861 201.636,111.528 199.5,112.5C 200.815,113.895 200.481,114.895 198.5,115.5C 196.775,114.985 195.108,114.318 193.5,113.5C 193.709,112.914 194.043,112.414 194.5,112C 190.748,111.024 190.082,111.69 192.5,114C 191.359,114.741 191.359,115.575 192.5,116.5C 190.728,117.27 189.728,118.603 189.5,120.5C 191.312,124.33 191.812,128.33 191,132.5C 190.632,133.91 189.799,134.91 188.5,135.5C 187.235,133.654 185.902,131.82 184.5,130C 184.42,125.274 185.087,120.441 186.5,115.5C 185.167,115.5 183.833,115.5 182.5,115.5C 182.657,116.873 182.49,118.207 182,119.5C 181.329,118.748 180.496,118.414 179.5,118.5C 167.546,113.615 162.379,117.615 164,130.5C 164.717,131.044 165.217,131.711 165.5,132.5C 165.294,134.549 164.461,134.883 163,133.5C 162.28,135.112 162.446,136.612 163.5,138C 158.1,140.892 154.1,139.725 151.5,134.5C 155.625,128.667 155.292,123 150.5,117.5C 146.892,116.407 143.225,116.24 139.5,117C 137.859,119.163 135.859,120.663 133.5,121.5C 130.527,124.007 127.527,126.674 124.5,129.5C 125.167,129.833 125.833,130.167 126.5,130.5C 123.833,131.833 123.833,133.167 126.5,134.5C 124.853,138.453 125.52,141.953 128.5,145C 128.167,145.167 127.833,145.333 127.5,145.5C 125.231,144.185 122.898,143.018 120.5,142C 120.617,138.745 121.284,135.411 122.5,132C 121.228,129.956 121.561,128.122 123.5,126.5C 122.309,126.595 120.975,126.262 119.5,125.5C 119.737,122.353 120.57,119.353 122,116.5C 124.696,115.328 126.363,113.328 127,110.5C 127.333,110.833 127.667,111.167 128,111.5C 131.357,110.258 131.19,109.424 127.5,109C 130.501,108.262 133.168,107.096 135.5,105.5C 212.501,104.029 289.501,104.196 366.5,106C 368.641,106.573 370.641,107.406 372.5,108.5 Z"/></g>
<g><path style="opacity:1" fill="#04aefb" d="M 279.5,118.5 C 277.977,121.635 277.31,124.968 277.5,128.5C 277.238,129.978 277.571,131.311 278.5,132.5C 279.981,133.48 281.315,134.647 282.5,136C 288.523,136.359 294.523,136.859 300.5,137.5C 300.318,135.325 299.651,133.325 298.5,131.5C 299.754,129.666 300.421,127.666 300.5,125.5C 302.685,125.296 304.685,124.63 306.5,123.5C 307.98,121.142 309.647,118.809 311.5,116.5C 310.376,115.086 309.376,113.586 308.5,112C 309.025,111.308 309.692,110.808 310.5,110.5C 312.488,111.289 312.821,112.455 311.5,114C 316.144,113.709 320.811,113.709 325.5,114C 326.756,114.417 327.423,115.25 327.5,116.5C 329.592,116.561 331.092,117.561 332,119.5C 333.571,124.506 335.404,129.339 337.5,134C 336.55,136.91 334.55,138.077 331.5,137.5C 331.64,139.124 330.973,140.29 329.5,141C 332.167,142 332.167,143 329.5,144C 334.257,146.509 335.257,145.676 332.5,141.5C 334.755,140.663 337.421,139.83 340.5,139C 341.5,138 342.5,137 343.5,136C 342.636,134.863 341.636,133.53 340.5,132C 341.244,130.961 342.244,130.461 343.5,130.5C 345.262,131.262 346.262,132.596 346.5,134.5C 345.305,134.866 344.639,135.699 344.5,137C 345.889,139.532 345.389,141.699 343,143.5C 340.049,140.722 338.216,140.889 337.5,144C 349.813,145.26 362.147,145.593 374.5,145C 375.126,144.25 375.626,143.416 376,142.5C 377.356,143.38 378.856,143.714 380.5,143.5C 380.666,137.491 380.499,131.491 380,125.5C 379.667,125.167 379.333,124.833 379,124.5C 378.576,126.615 377.409,127.448 375.5,127C 376.068,125.704 376.068,124.204 375.5,122.5C 375.833,121.5 376.167,120.5 376.5,119.5C 377.892,120.605 379.059,121.939 380,123.5C 380.483,122.552 380.649,121.552 380.5,120.5C 381.167,120.167 381.833,119.833 382.5,119.5C 382.5,128.5 382.5,137.5 382.5,146.5C 294.833,146.5 207.167,146.5 119.5,146.5C 119.5,139.5 119.5,132.5 119.5,125.5C 120.975,126.262 122.309,126.595 123.5,126.5C 121.561,128.122 121.228,129.956 122.5,132C 121.284,135.411 120.617,138.745 120.5,142C 122.898,143.018 125.231,144.185 127.5,145.5C 127.833,145.333 128.167,145.167 128.5,145C 125.52,141.953 124.853,138.453 126.5,134.5C 123.833,133.167 123.833,131.833 126.5,130.5C 125.833,130.167 125.167,129.833 124.5,129.5C 127.527,126.674 130.527,124.007 133.5,121.5C 133.389,122.117 133.056,122.617 132.5,123C 135.047,124.316 135.713,126.149 134.5,128.5C 134.965,130.808 136.299,132.142 138.5,132.5C 138.414,133.496 138.748,134.329 139.5,135C 143.554,135.694 147.554,135.527 151.5,134.5C 154.1,139.725 158.1,140.892 163.5,138C 162.446,136.612 162.28,135.112 163,133.5C 164.461,134.883 165.294,134.549 165.5,132.5C 169.405,135.181 173.738,136.014 178.5,135C 181.937,130.517 182.271,126.017 179.5,121.5C 179.5,121.167 179.5,120.833 179.5,120.5C 179.5,119.833 179.5,119.167 179.5,118.5C 180.496,118.414 181.329,118.748 182,119.5C 182.49,118.207 182.657,116.873 182.5,115.5C 183.833,115.5 185.167,115.5 186.5,115.5C 185.087,120.441 184.42,125.274 184.5,130C 185.902,131.82 187.235,133.654 188.5,135.5C 189.799,134.91 190.632,133.91 191,132.5C 191.812,128.33 191.312,124.33 189.5,120.5C 189.728,118.603 190.728,117.27 192.5,116.5C 191.359,115.575 191.359,114.741 192.5,114C 190.082,111.69 190.748,111.024 194.5,112C 194.043,112.414 193.709,112.914 193.5,113.5C 195.108,114.318 196.775,114.985 198.5,115.5C 200.481,114.895 200.815,113.895 199.5,112.5C 201.636,111.528 202.803,109.861 203,107.5C 204.494,106.253 205.994,106.253 207.5,107.5C 206.624,108.251 205.624,108.751 204.5,109C 205.255,111.175 206.088,113.341 207,115.5C 209.382,110.933 212.049,110.6 215,114.5C 216.008,114.018 217.175,113.852 218.5,114C 219.779,112.354 221.445,111.187 223.5,110.5C 221.93,110.306 220.43,110.306 219,110.5C 218.5,109.333 217.667,108.5 216.5,108C 218.764,107.764 220.931,107.264 223,106.5C 223.308,107.308 223.808,107.975 224.5,108.5C 225.935,106.599 227.602,106.266 229.5,107.5C 228.167,108.5 226.833,109.5 225.5,110.5C 228.007,114.427 231.34,115.427 235.5,113.5C 238.629,114.342 241.796,115.008 245,115.5C 248.827,116.27 251.494,114.937 253,111.5C 253.718,112.451 254.551,112.617 255.5,112C 254.07,110.12 254.404,108.62 256.5,107.5C 258.203,109.573 259.37,111.906 260,114.5C 262.696,115.19 264.863,116.69 266.5,119C 266.167,119.333 265.833,119.667 265.5,120C 266.525,124.955 268.358,125.455 271,121.5C 271.333,122.5 271.667,123.5 272,124.5C 274.455,123.257 275.622,121.257 275.5,118.5C 276.833,118.5 278.167,118.5 279.5,118.5 Z"/></g>
<g><path style="opacity:1" fill="#f1fcfc" d="M 277.5,128.5 C 277.31,124.968 277.977,121.635 279.5,118.5C 284.122,115.132 289.122,114.632 294.5,117C 300.113,122.999 299.779,128.666 293.5,134C 290.262,135.368 286.928,135.701 283.5,135C 281.266,132.937 279.266,130.771 277.5,128.5 Z"/></g>
<g><path style="opacity:1" fill="#f1fcfb" d="M 327.5,116.5 C 332.792,122.335 332.792,128.168 327.5,134C 315.019,136.852 310.185,132.019 313,119.5C 317.137,115.458 321.97,114.458 327.5,116.5 Z"/></g>
<g><path style="opacity:1" fill="#21acec" d="M 306.5,123.5 C 304.685,124.63 302.685,125.296 300.5,125.5C 300.421,127.666 299.754,129.666 298.5,131.5C 299.651,133.325 300.318,135.325 300.5,137.5C 294.523,136.859 288.523,136.359 282.5,136C 281.315,134.647 279.981,133.48 278.5,132.5C 277.571,131.311 277.238,129.978 277.5,128.5C 279.266,130.771 281.266,132.937 283.5,135C 286.928,135.701 290.262,135.368 293.5,134C 299.779,128.666 300.113,122.999 294.5,117C 289.122,114.632 284.122,115.132 279.5,118.5C 279.286,116.856 279.62,115.356 280.5,114C 283.352,113.731 286.018,112.897 288.5,111.5C 289.216,112.311 290.05,112.978 291,113.5C 292.465,112.67 293.965,112.504 295.5,113C 294.476,114.367 294.976,115.2 297,115.5C 299.943,114.76 300.109,113.76 297.5,112.5C 299.511,110.549 301.511,110.382 303.5,112C 299.919,115.158 298.919,118.992 300.5,123.5C 301.833,122.833 303.167,122.167 304.5,121.5C 307.484,116.491 308.151,117.158 306.5,123.5 Z"/></g>
<g><path style="opacity:1" fill="#30acdf" d="M 151.5,134.5 C 147.554,135.527 143.554,135.694 139.5,135C 138.748,134.329 138.414,133.496 138.5,132.5C 136.299,132.142 134.965,130.808 134.5,128.5C 135.713,126.149 135.047,124.316 132.5,123C 133.056,122.617 133.389,122.117 133.5,121.5C 135.859,120.663 137.859,119.163 139.5,117C 143.225,116.24 146.892,116.407 150.5,117.5C 155.292,123 155.625,128.667 151.5,134.5 Z"/></g>
<g><path style="opacity:1" fill="#ccfafe" d="M 140.5,132.5 C 148.891,133.511 152.058,129.844 150,121.5C 145.467,118.512 141.3,118.845 137.5,122.5C 139.359,118.074 142.692,116.574 147.5,118C 153.296,122.24 153.963,127.24 149.5,133C 146.261,135.107 143.261,134.94 140.5,132.5 Z"/></g>
<g><path style="opacity:1" fill="#f5fdfb" d="M 140.5,132.5 C 139.833,132.5 139.167,132.5 138.5,132.5C 137.553,130.266 136.886,127.932 136.5,125.5C 136.52,124.274 136.853,123.274 137.5,122.5C 141.3,118.845 145.467,118.512 150,121.5C 152.058,129.844 148.891,133.511 140.5,132.5 Z"/></g>
<g><path style="opacity:1" fill="#e9fcfb" d="M 179.5,120.5 C 179.5,120.833 179.5,121.167 179.5,121.5C 181.592,131.907 177.592,135.407 167.5,132C 163.482,126.706 164.148,122.039 169.5,118C 173.327,117.024 176.66,117.857 179.5,120.5 Z"/></g>
<g><path style="opacity:1" fill="#35acdd" d="M 179.5,118.5 C 179.5,119.167 179.5,119.833 179.5,120.5C 176.66,117.857 173.327,117.024 169.5,118C 164.148,122.039 163.482,126.706 167.5,132C 177.592,135.407 181.592,131.907 179.5,121.5C 182.271,126.017 181.937,130.517 178.5,135C 173.738,136.014 169.405,135.181 165.5,132.5C 165.217,131.711 164.717,131.044 164,130.5C 162.379,117.615 167.546,113.615 179.5,118.5 Z"/></g>
<g><path style="opacity:1" fill="#d7fcfd" d="M 194.5,122.5 C 199.014,122.693 200.347,124.86 198.5,129C 193.57,129.427 192.237,127.26 194.5,122.5 Z"/></g>
<g><path style="opacity:1" fill="#2fade2" d="M 346.5,134.5 C 346.262,132.596 345.262,131.262 343.5,130.5C 343.5,129.5 343.5,128.5 343.5,127.5C 342.325,127.719 341.325,127.386 340.5,126.5C 341.522,125.646 342.355,124.646 343,123.5C 343.386,119.142 344.72,115.142 347,111.5C 351.39,113.82 356.056,114.154 361,112.5C 366.218,118.767 367.385,125.767 364.5,133.5C 358.633,137.046 352.633,137.379 346.5,134.5 Z"/></g>
<g><path style="opacity:1" fill="#d7fbfd" d="M 361.5,117.5 C 362.458,117.953 363.292,118.619 364,119.5C 367.151,131.671 362.651,136.838 350.5,135C 342.559,128.514 342.559,122.181 350.5,116C 353.5,115.333 356.5,115.333 359.5,116C 360.416,116.278 361.082,116.778 361.5,117.5 Z"/></g>
<g><path style="opacity:1" fill="#fbfdfb" d="M 361.5,117.5 C 362.111,120.662 362.778,123.829 363.5,127C 362.962,130.205 361.128,132.039 358,132.5C 355.213,131.802 352.38,131.635 349.5,132C 344.377,124.318 346.21,119.151 355,116.5C 357.187,116.788 359.354,117.122 361.5,117.5 Z"/></g>
<g><path style="opacity:1" fill="#18abe6" d="M 118.5,125.5 C 118.833,125.5 119.167,125.5 119.5,125.5C 119.5,132.5 119.5,139.5 119.5,146.5C 207.167,146.5 294.833,146.5 382.5,146.5C 294.668,147.499 206.668,147.833 118.5,147.5C 118.5,140.167 118.5,132.833 118.5,125.5 Z"/></g>
<g><path style="opacity:1" fill="#17729f" d="M 382.5,119.5 C 383.494,128.986 383.827,138.652 383.5,148.5C 295.833,148.5 208.167,148.5 120.5,148.5C 119.833,148.5 119.167,148.5 118.5,148.5C 118.5,148.167 118.5,147.833 118.5,147.5C 206.668,147.833 294.668,147.499 382.5,146.5C 382.5,137.5 382.5,128.5 382.5,119.5 Z"/></g>
<g><path style="opacity:1" fill="#01203e" d="M 120.5,148.5 C 208.167,148.5 295.833,148.5 383.5,148.5C 381.031,149.317 378.365,149.817 375.5,150C 377.395,150.217 379.395,151.05 381.5,152.5C 377.82,153.764 374.153,153.764 370.5,152.5C 369.354,153.145 368.354,153.978 367.5,155C 371.015,156.508 374.015,158.675 376.5,161.5C 377.192,160.975 377.692,160.308 378,159.5C 379.333,162.167 380.667,162.167 382,159.5C 384.113,161.271 383.947,162.771 381.5,164C 298.322,164.856 215.322,164.523 132.5,163C 130.744,162.798 129.078,162.298 127.5,161.5C 127.667,161.167 127.833,160.833 128,160.5C 131.786,161.795 135.62,161.795 139.5,160.5C 134.797,159.905 130.297,159.905 126,160.5C 125.933,157.953 125.099,155.786 123.5,154C 124.793,153.51 126.127,153.343 127.5,153.5C 127.5,154.5 127.5,155.5 127.5,156.5C 130.85,156.665 134.183,156.498 137.5,156C 136.692,155.692 136.025,155.192 135.5,154.5C 137.5,153.833 139.5,153.167 141.5,152.5C 134.591,151.29 127.591,149.957 120.5,148.5 Z"/></g>
<g><path style="opacity:1" fill="#cadeec" d="M 382.5,364.5 C 382.5,300.167 382.5,235.833 382.5,171.5C 364.923,171.825 347.423,171.492 330,170.5C 329.283,171.044 328.783,171.711 328.5,172.5C 309.992,172.17 291.659,172.503 273.5,173.5C 272.391,173.557 271.391,173.89 270.5,174.5C 270.586,173.504 270.252,172.671 269.5,172C 254.328,171.172 239.328,171.339 224.5,172.5C 206.09,172.18 187.757,172.514 169.5,173.5C 152.866,171.514 135.866,170.848 118.5,171.5C 118.5,169.5 118.5,167.5 118.5,165.5C 206.833,165.5 295.167,165.5 383.5,165.5C 383.832,232.002 383.499,298.335 382.5,364.5 Z"/></g>
<g><path style="opacity:1" fill="#fcfdfd" d="M 382.5,364.5 C 381.014,374.818 375.347,381.651 365.5,385C 288.5,385.667 211.5,385.667 134.5,385C 126.535,381.698 121.368,375.865 119,367.5C 118.5,302.168 118.333,236.834 118.5,171.5C 135.866,170.848 152.866,171.514 169.5,173.5C 166.566,174.893 164.066,176.893 162,179.5C 161.5,191.162 161.333,202.829 161.5,214.5C 155.491,214.334 149.491,214.501 143.5,215C 137.882,217.072 136.215,220.905 138.5,226.5C 137.699,231.181 139.033,235.014 142.5,238C 148.491,238.499 154.491,238.666 160.5,238.5C 160.5,239.5 160.5,240.5 160.5,241.5C 153.716,241.08 147.05,241.58 140.5,243C 136.933,246.903 136.6,251.069 139.5,255.5C 140.203,257.716 141.536,259.549 143.5,261C 149.088,262.289 154.755,262.789 160.5,262.5C 160.5,270.167 160.5,277.833 160.5,285.5C 154.642,285.178 148.975,285.511 143.5,286.5C 137.268,289.619 135.935,294.286 139.5,300.5C 138.758,304.471 140.091,307.304 143.5,309C 149.157,309.499 154.824,309.666 160.5,309.5C 160.5,310.833 160.5,312.167 160.5,313.5C 153.716,313.08 147.05,313.58 140.5,315C 137.38,317.994 136.714,321.494 138.5,325.5C 139.038,327.117 139.371,328.784 139.5,330.5C 142.108,330.606 144.108,331.772 145.5,334C 150.489,334.499 155.489,334.666 160.5,334.5C 160.178,340.358 160.511,346.025 161.5,351.5C 161.5,352.5 161.5,353.5 161.5,354.5C 160.158,361.657 162.825,366.491 169.5,369C 188.5,369.667 207.5,369.667 226.5,369C 233.513,365.792 236.513,360.292 235.5,352.5C 235.5,346.5 235.5,340.5 235.5,334.5C 245.114,333.551 254.781,333.218 264.5,333.5C 264.5,340.167 264.5,346.833 264.5,353.5C 263.494,360.312 265.827,365.479 271.5,369C 290.833,369.667 310.167,369.667 329.5,369C 334.667,367.833 337.833,364.667 339,359.5C 339.5,351.173 339.666,342.84 339.5,334.5C 344.691,334.486 350.025,334.319 355.5,334C 358.98,332.113 361.314,329.28 362.5,325.5C 364.483,320.874 363.483,317.04 359.5,314C 352.842,313.5 346.175,313.334 339.5,313.5C 339.5,312.167 339.5,310.833 339.5,309.5C 346.047,309.775 352.547,309.442 359,308.5C 361.428,306.058 362.595,303.058 362.5,299.5C 363.11,298.609 363.443,297.609 363.5,296.5C 364.234,295.122 364.901,293.622 365.5,292C 364.192,289.645 363.192,287.145 362.5,284.5C 361.483,287.028 360.316,287.028 359,284.5C 353.221,285.807 347.388,285.807 341.5,284.5C 341.096,278.218 340.763,271.551 340.5,264.5C 345.844,264.666 351.177,264.499 356.5,264C 360.591,262.646 363.258,259.979 364.5,256C 363.542,254.853 363.875,253.853 365.5,253C 365.675,249.365 365.009,245.698 363.5,242C 363.833,241.667 364.167,241.333 364.5,241C 362.893,241.019 361.226,241.185 359.5,241.5C 352.833,241.5 346.167,241.5 339.5,241.5C 339.5,240.5 339.5,239.5 339.5,238.5C 346.2,238.83 352.866,238.497 359.5,237.5C 362.03,234.73 363.03,231.397 362.5,227.5C 364.379,223.135 363.712,219.302 360.5,216C 353.281,214.571 345.947,214.071 338.5,214.5C 338.667,202.829 338.5,191.162 338,179.5C 335.651,176.074 332.484,173.74 328.5,172.5C 328.783,171.711 329.283,171.044 330,170.5C 347.423,171.492 364.923,171.825 382.5,171.5C 382.5,235.833 382.5,300.167 382.5,364.5 Z"/></g>
<g><path style="opacity:1" fill="#fbfdfd" d="M 224.5,172.5 C 239.328,171.339 254.328,171.172 269.5,172C 270.252,172.671 270.586,173.504 270.5,174.5C 268.164,176.004 266.331,178.004 265,180.5C 264.5,191.828 264.333,203.162 264.5,214.5C 254.833,214.5 245.167,214.5 235.5,214.5C 235.667,203.495 235.5,192.495 235,181.5C 233.177,176.508 229.677,173.508 224.5,172.5 Z"/></g>
<g><path style="opacity:1" fill="#031f3b" d="M 224.5,172.5 C 229.677,173.508 233.177,176.508 235,181.5C 235.5,192.495 235.667,203.495 235.5,214.5C 245.167,214.5 254.833,214.5 264.5,214.5C 264.333,203.162 264.5,191.828 265,180.5C 266.331,178.004 268.164,176.004 270.5,174.5C 271.391,173.89 272.391,173.557 273.5,173.5C 290.875,173.088 308.209,173.588 325.5,175C 328.132,177.816 331.132,179.983 334.5,181.5C 335.138,183.799 336.138,185.966 337.5,188C 336.648,197.161 336.482,206.328 337,215.5C 337.75,216.126 338.584,216.626 339.5,217C 345.833,217.333 352.167,217.667 358.5,218C 360.577,219.076 361.91,220.743 362.5,223C 360.968,225.695 358.968,227.862 356.5,229.5C 350.5,229.5 344.5,229.5 338.5,229.5C 338.183,233.702 338.517,237.702 339.5,241.5C 346.167,241.5 352.833,241.5 359.5,241.5C 364.803,246.594 364.803,251.76 359.5,257C 352.508,257.5 345.508,257.666 338.5,257.5C 338.5,267.167 338.5,276.833 338.5,286.5C 345.508,286.334 352.508,286.5 359.5,287C 362.962,289.239 364.295,292.406 363.5,296.5C 363.443,297.609 363.11,298.609 362.5,299.5C 361.18,300.942 359.514,301.608 357.5,301.5C 351.167,301.5 344.833,301.5 338.5,301.5C 338.183,305.702 338.517,309.702 339.5,313.5C 346.175,313.334 352.842,313.5 359.5,314C 363.483,317.04 364.483,320.874 362.5,325.5C 361.373,326.122 360.373,326.955 359.5,328C 352.842,328.5 346.175,328.666 339.5,328.5C 338.67,336.99 338.17,345.657 338,354.5C 336.86,358.307 334.36,360.807 330.5,362C 311.167,362.667 291.833,362.667 272.5,362C 268.897,359.902 266.23,357.068 264.5,353.5C 264.5,346.833 264.5,340.167 264.5,333.5C 264.5,331.833 264.5,330.167 264.5,328.5C 254.833,328.5 245.167,328.5 235.5,328.5C 235.5,330.5 235.5,332.5 235.5,334.5C 235.5,340.5 235.5,346.5 235.5,352.5C 234.085,357.084 231.085,360.25 226.5,362C 207.167,362.667 187.833,362.667 168.5,362C 165.228,360.233 162.895,357.733 161.5,354.5C 161.5,353.5 161.5,352.5 161.5,351.5C 161.5,343.833 161.5,336.167 161.5,328.5C 154.825,328.666 148.158,328.5 141.5,328C 140.627,326.955 139.627,326.122 138.5,325.5C 136.714,321.494 137.38,317.994 140.5,315C 147.05,313.58 153.716,313.08 160.5,313.5C 161.483,309.702 161.817,305.702 161.5,301.5C 154.08,301.797 146.746,301.464 139.5,300.5C 135.935,294.286 137.268,289.619 143.5,286.5C 149.5,286.5 155.5,286.5 161.5,286.5C 161.5,276.833 161.5,267.167 161.5,257.5C 155.158,257.666 148.825,257.5 142.5,257C 141.473,256.487 140.473,255.987 139.5,255.5C 136.6,251.069 136.933,246.903 140.5,243C 147.05,241.58 153.716,241.08 160.5,241.5C 161.483,237.702 161.817,233.702 161.5,229.5C 155.5,229.5 149.5,229.5 143.5,229.5C 141.326,229.25 139.659,228.25 138.5,226.5C 136.215,220.905 137.882,217.072 143.5,215C 149.491,214.501 155.491,214.334 161.5,214.5C 161.333,202.829 161.5,191.162 162,179.5C 164.066,176.893 166.566,174.893 169.5,173.5C 187.757,172.514 206.09,172.18 224.5,172.5 Z"/></g>
<g><path style="opacity:1" fill="#fcfdfd" d="M 213.5,194.5 C 213.5,194.833 213.5,195.167 213.5,195.5C 213.5,214.833 213.5,234.167 213.5,253.5C 237.833,253.5 262.167,253.5 286.5,253.5C 286.5,250.833 286.5,248.167 286.5,245.5C 286.5,228.5 286.5,211.5 286.5,194.5C 296.5,194.5 306.5,194.5 316.5,194.5C 316.5,243.5 316.5,292.5 316.5,341.5C 306.5,341.5 296.5,341.5 286.5,341.5C 286.5,321.5 286.5,301.5 286.5,281.5C 262.167,281.5 237.833,281.5 213.5,281.5C 213.5,301.5 213.5,321.5 213.5,341.5C 203.5,341.5 193.5,341.5 183.5,341.5C 183.5,292.5 183.5,243.5 183.5,194.5C 193.5,194.5 203.5,194.5 213.5,194.5 Z"/></g>
<g><path style="opacity:1" fill="#11273b" d="M 273.5,173.5 C 291.659,172.503 309.992,172.17 328.5,172.5C 332.484,173.74 335.651,176.074 338,179.5C 338.5,191.162 338.667,202.829 338.5,214.5C 345.947,214.071 353.281,214.571 360.5,216C 363.712,219.302 364.379,223.135 362.5,227.5C 360.95,228.441 359.284,229.107 357.5,229.5C 357.167,229.5 356.833,229.5 356.5,229.5C 358.968,227.862 360.968,225.695 362.5,223C 361.91,220.743 360.577,219.076 358.5,218C 352.167,217.667 345.833,217.333 339.5,217C 338.584,216.626 337.75,216.126 337,215.5C 336.482,206.328 336.648,197.161 337.5,188C 336.138,185.966 335.138,183.799 334.5,181.5C 331.132,179.983 328.132,177.816 325.5,175C 308.209,173.588 290.875,173.088 273.5,173.5 Z"/></g>
<g><path style="opacity:1" fill="#7b95ab" d="M 143.5,229.5 C 149.5,229.5 155.5,229.5 161.5,229.5C 161.817,233.702 161.483,237.702 160.5,241.5C 160.5,240.5 160.5,239.5 160.5,238.5C 160.5,235.833 160.5,233.167 160.5,230.5C 154.642,230.822 148.975,230.489 143.5,229.5 Z"/></g>
<g><path style="opacity:1" fill="#678398" d="M 356.5,229.5 C 356.833,229.5 357.167,229.5 357.5,229.5C 351.69,230.49 345.69,230.823 339.5,230.5C 339.5,233.167 339.5,235.833 339.5,238.5C 339.5,239.5 339.5,240.5 339.5,241.5C 338.517,237.702 338.183,233.702 338.5,229.5C 344.5,229.5 350.5,229.5 356.5,229.5 Z"/></g>
<g><path style="opacity:1" fill="#cae4f3" d="M 138.5,226.5 C 139.659,228.25 141.326,229.25 143.5,229.5C 148.975,230.489 154.642,230.822 160.5,230.5C 160.5,233.167 160.5,235.833 160.5,238.5C 154.491,238.666 148.491,238.499 142.5,238C 139.033,235.014 137.699,231.181 138.5,226.5 Z"/></g>
<g><path style="opacity:1" fill="#cbe5f2" d="M 362.5,227.5 C 363.03,231.397 362.03,234.73 359.5,237.5C 352.866,238.497 346.2,238.83 339.5,238.5C 339.5,235.833 339.5,233.167 339.5,230.5C 345.69,230.823 351.69,230.49 357.5,229.5C 359.284,229.107 360.95,228.441 362.5,227.5 Z"/></g>
<g><path style="opacity:1" fill="#b6cad6" d="M 235.5,230.5 C 245.19,230.168 254.856,230.502 264.5,231.5C 259.667,231.833 254.833,232.167 250,232.5C 244.784,232.494 239.951,231.827 235.5,230.5 Z"/></g>
<g><path style="opacity:1" fill="#5c6d7a" d="M 213.5,194.5 C 203.5,194.5 193.5,194.5 183.5,194.5C 183.5,243.5 183.5,292.5 183.5,341.5C 193.5,341.5 203.5,341.5 213.5,341.5C 203.347,342.494 193.014,342.828 182.5,342.5C 182.5,292.833 182.5,243.167 182.5,193.5C 193.014,193.172 203.347,193.506 213.5,194.5 Z"/></g>
<g><path style="opacity:1" fill="#051728" d="M 213.5,195.5 C 214.497,214.326 214.83,233.326 214.5,252.5C 237.169,252.667 259.836,252.5 282.5,252C 284.688,250.041 286.021,247.874 286.5,245.5C 286.5,248.167 286.5,250.833 286.5,253.5C 262.167,253.5 237.833,253.5 213.5,253.5C 213.5,234.167 213.5,214.833 213.5,195.5 Z"/></g>
<g><path style="opacity:1" fill="#cfe2ed" d="M 139.5,255.5 C 140.473,255.987 141.473,256.487 142.5,257C 148.825,257.5 155.158,257.666 161.5,257.5C 161.5,267.167 161.5,276.833 161.5,286.5C 155.5,286.5 149.5,286.5 143.5,286.5C 148.975,285.511 154.642,285.178 160.5,285.5C 160.5,277.833 160.5,270.167 160.5,262.5C 154.755,262.789 149.088,262.289 143.5,261C 141.536,259.549 140.203,257.716 139.5,255.5 Z"/></g>
<g><path style="opacity:1" fill="#dae7ed" d="M 363.5,296.5 C 364.295,292.406 362.962,289.239 359.5,287C 352.508,286.5 345.508,286.334 338.5,286.5C 338.5,276.833 338.5,267.167 338.5,257.5C 345.508,257.666 352.508,257.5 359.5,257C 364.803,251.76 364.803,246.594 359.5,241.5C 361.226,241.185 362.893,241.019 364.5,241C 364.167,241.333 363.833,241.667 363.5,242C 365.009,245.698 365.675,249.365 365.5,253C 363.875,253.853 363.542,254.853 364.5,256C 363.258,259.979 360.591,262.646 356.5,264C 351.177,264.499 345.844,264.666 340.5,264.5C 340.763,271.551 341.096,278.218 341.5,284.5C 347.388,285.807 353.221,285.807 359,284.5C 360.316,287.028 361.483,287.028 362.5,284.5C 363.192,287.145 364.192,289.645 365.5,292C 364.901,293.622 364.234,295.122 363.5,296.5 Z"/></g>
<g><path style="opacity:1" fill="#97a6b2" d="M 286.5,194.5 C 296.653,193.506 306.986,193.172 317.5,193.5C 317.832,243.003 317.499,292.336 316.5,341.5C 316.5,292.5 316.5,243.5 316.5,194.5C 306.5,194.5 296.5,194.5 286.5,194.5 Z"/></g>
<g><path style="opacity:1" fill="#8aa4b9" d="M 264.5,301.5 C 254.833,301.5 245.167,301.5 235.5,301.5C 235.5,305.5 235.5,309.5 235.5,313.5C 234.515,309.366 234.182,305.032 234.5,300.5C 244.681,300.173 254.681,300.506 264.5,301.5 Z"/></g>
<g><path style="opacity:1" fill="#7492a8" d="M 357.5,301.5 C 351.69,302.49 345.69,302.823 339.5,302.5C 339.5,304.833 339.5,307.167 339.5,309.5C 339.5,310.833 339.5,312.167 339.5,313.5C 338.517,309.702 338.183,305.702 338.5,301.5C 344.833,301.5 351.167,301.5 357.5,301.5 Z"/></g>
<g><path style="opacity:1" fill="#d1e8f5" d="M 264.5,301.5 C 264.5,305.5 264.5,309.5 264.5,313.5C 254.833,313.5 245.167,313.5 235.5,313.5C 235.5,309.5 235.5,305.5 235.5,301.5C 245.167,301.5 254.833,301.5 264.5,301.5 Z"/></g>
<g><path style="opacity:1" fill="#c5dfee" d="M 139.5,300.5 C 146.746,301.464 154.08,301.797 161.5,301.5C 161.817,305.702 161.483,309.702 160.5,313.5C 160.5,312.167 160.5,310.833 160.5,309.5C 154.824,309.666 149.157,309.499 143.5,309C 140.091,307.304 138.758,304.471 139.5,300.5 Z"/></g>
<g><path style="opacity:1" fill="#cbe4f3" d="M 362.5,299.5 C 362.595,303.058 361.428,306.058 359,308.5C 352.547,309.442 346.047,309.775 339.5,309.5C 339.5,307.167 339.5,304.833 339.5,302.5C 345.69,302.823 351.69,302.49 357.5,301.5C 359.514,301.608 361.18,300.942 362.5,299.5 Z"/></g>
<g><path style="opacity:1" fill="#cfe7f7" d="M 264.5,333.5 C 254.781,333.218 245.114,333.551 235.5,334.5C 235.5,332.5 235.5,330.5 235.5,328.5C 245.167,328.5 254.833,328.5 264.5,328.5C 264.5,330.167 264.5,331.833 264.5,333.5 Z"/></g>
<g><path style="opacity:1" fill="#d1e4f1" d="M 138.5,325.5 C 139.627,326.122 140.627,326.955 141.5,328C 148.158,328.5 154.825,328.666 161.5,328.5C 161.5,336.167 161.5,343.833 161.5,351.5C 160.511,346.025 160.178,340.358 160.5,334.5C 155.489,334.666 150.489,334.499 145.5,334C 144.108,331.772 142.108,330.606 139.5,330.5C 139.371,328.784 139.038,327.117 138.5,325.5 Z"/></g>
<g><path style="opacity:1" fill="#d2e8f4" d="M 362.5,325.5 C 361.314,329.28 358.98,332.113 355.5,334C 350.025,334.319 344.691,334.486 339.5,334.5C 339.5,332.5 339.5,330.5 339.5,328.5C 346.175,328.666 352.842,328.5 359.5,328C 360.373,326.955 361.373,326.122 362.5,325.5 Z"/></g>
<g><path style="opacity:1" fill="#c4dcec" d="M 339.5,328.5 C 339.5,330.5 339.5,332.5 339.5,334.5C 339.666,342.84 339.5,351.173 339,359.5C 337.833,364.667 334.667,367.833 329.5,369C 310.167,369.667 290.833,369.667 271.5,369C 265.827,365.479 263.494,360.312 264.5,353.5C 266.23,357.068 268.897,359.902 272.5,362C 291.833,362.667 311.167,362.667 330.5,362C 334.36,360.807 336.86,358.307 338,354.5C 338.17,345.657 338.67,336.99 339.5,328.5 Z"/></g>
<g><path style="opacity:1" fill="#c7e1ef" d="M 235.5,352.5 C 236.513,360.292 233.513,365.792 226.5,369C 207.5,369.667 188.5,369.667 169.5,369C 162.825,366.491 160.158,361.657 161.5,354.5C 162.895,357.733 165.228,360.233 168.5,362C 187.833,362.667 207.167,362.667 226.5,362C 231.085,360.25 234.085,357.084 235.5,352.5 Z"/></g>
</svg>
